<?xml version="1.0" encoding="utf-8"?>
<!-- Generator: Adobe Illustrator 15.1.0, SVG Export Plug-In . SVG Version: 6.00 Build 0)  -->
<!DOCTYPE svg PUBLIC "-//W3C//DTD SVG 1.1//EN" "http://www.w3.org/Graphics/SVG/1.1/DTD/svg11.dtd">
<svg version="1.1" id="Layer_1" xmlns="http://www.w3.org/2000/svg" xmlns:xlink="http://www.w3.org/1999/xlink" x="0px" y="0px"
	 width="270.786px" height="61.189px" viewBox="0 0 270.786 61.189" enable-background="new 0 0 270.786 61.189"
	 xml:space="preserve">
<g>
	<g>
		<path fill="#72786C" d="M3.471,47.149h0.757v7.297h4.448v0.645H3.471V47.149z"/>
		<g>
			<g>
				<g>
					<path fill="#72786C" d="M4.398,34.67l-0.083,0.273H3.393l0.252-0.639l12.163-30.14c0.126-0.319,0.629-0.319,0.755,0
						l12.163,30.14l0.252,0.639h-0.924l-0.082-0.273L16.185,5.489L4.398,34.67z"/>
				</g>
				<g>
					<path fill="#72786C" d="M29.095,34.67l-0.084,0.273h-0.922l0.251-0.639l12.163-30.14c0.125-0.319,0.63-0.319,0.756,0
						l12.164,30.14l0.252,0.639H52.75l-0.084-0.273L40.88,5.489L29.095,34.67z"/>
				</g>
			</g>
			<g>
				<rect x="3.471" y="40.688" fill="#B3B7AE" width="50.204" height="0.847"/>
			</g>
			<path fill="#72786C" d="M28.154,47.149h0.847l3.113,7.941h-0.813l-0.967-2.469h-3.614l-0.956,2.469h-0.813L28.154,47.149z
				 M26.954,51.977h3.125l-1.535-4.069L26.954,51.977z"/>
		</g>
		<path fill="#72786C" d="M47.47,47.149h3.357c1.334,0,2.546,0.47,2.546,1.948c0,0.833-0.556,1.601-1.378,1.778v0.023
			c1.023,0.134,1.68,0.9,1.68,1.934c0,0.758-0.268,2.258-2.848,2.258H47.47V47.149z M48.226,50.632h2.602
			c1.201,0,1.789-0.601,1.789-1.344c0-0.991-0.6-1.492-1.789-1.492h-2.602V50.632z M48.226,54.446h2.602
			c1.123,0,2.09-0.346,2.09-1.637c0-1.021-0.756-1.532-2.09-1.532h-2.602V54.446z"/>
	</g>
	<g>
		<path fill="#72786C" d="M64.584,34.807l-0.093,0.277h-1.012l0.275-0.646L77.103,4.063c0.139-0.322,0.69-0.322,0.828,0
			l13.348,30.375l0.276,0.646h-1.013l-0.093-0.277L77.517,5.397L64.584,34.807z"/>
		<path fill="#72786C" d="M122.123,11.841v0.461h-0.922v-0.461c0-4.004-4.143-7.134-9.158-7.134c-5.017,0-9.159,3.13-9.159,7.134
			c0,7.088,20.251,7.088,20.204,15.188c0,4.28-4.924,8.055-11.045,8.055c-6.261,0-11.047-3.729-11.047-8.055v-0.46h0.921v0.46
			c0,3.958,4.603,7.133,10.126,7.133c5.385,0,10.125-3.221,10.125-7.133c0-7.226-20.159-7.136-20.204-15.188
			c0-4.373,4.418-8.053,10.079-8.053C117.703,3.788,122.123,7.468,122.123,11.841z"/>
		<path fill="#72786C" d="M154.807,11.841v0.461h-0.922v-0.461c0-4.004-4.141-7.134-9.158-7.134c-5.016,0-9.159,3.13-9.159,7.134
			c0,7.088,20.25,7.088,20.206,15.188c0,4.28-4.926,8.055-11.047,8.055c-6.258,0-11.045-3.729-11.045-8.055v-0.46h0.92v0.46
			c0,3.958,4.602,7.133,10.125,7.133c5.387,0,10.125-3.221,10.125-7.133c0-7.226-20.159-7.136-20.204-15.188
			c0-4.373,4.418-8.053,10.079-8.053C150.389,3.788,154.807,7.468,154.807,11.841z"/>
		<path fill="#72786C" d="M190.758,3.788h0.461v0.919h-0.461h-20.711v14.268h15.049h0.461v0.919h-0.461h-15.049v14.269h20.711h0.461
			v0.922h-0.461h-21.172c-0.275,0-0.459-0.185-0.459-0.461V19.894v-0.919V4.247c0-0.277,0.184-0.459,0.459-0.459H190.758z"/>
		<path fill="#72786C" d="M206.417,34.623v0.461h-0.924v-0.461V4.247c0-0.414,0.6-0.599,0.83-0.277l21.217,29.227l0.047-28.949
			V3.788h0.92v0.459l-0.049,30.376c0,0.413-0.598,0.599-0.826,0.276L206.417,5.674V34.623z"/>
		<path fill="#72786C" d="M241.817,34.807l-0.092,0.277h-1.012l0.273-0.646l13.348-30.375c0.139-0.322,0.689-0.322,0.828,0
			l13.348,30.375l0.275,0.646h-1.01l-0.094-0.277L254.75,5.397L241.817,34.807z"/>
	</g>
</g>
</svg>
